<svg xmlns="http://www.w3.org/2000/svg" xmlns:xlink="http://www.w3.org/1999/xlink" viewBox="0 0 119 24"><path d="M 110.605 24 C 108.941 24 107.507 23.519 106.307 22.553 C 105.106 21.583 104.506 20.248 104.506 18.548 C 104.506 16.83 105.142 15.588 106.417 14.824 C 107.691 14.062 109.34 13.679 111.361 13.679 C 112.709 13.679 113.991 13.797 115.211 14.03 L 115.211 13.454 C 115.211 12.335 114.957 11.443 114.448 10.778 C 113.943 10.108 113.156 9.773 112.083 9.773 C 110.716 9.773 109.749 10.333 109.181 11.452 C 108.865 11.907 108.528 12.134 108.171 12.134 L 106.149 12.134 C 105.833 12.134 105.601 12.039 105.455 11.846 C 105.307 11.649 105.307 11.41 105.455 11.129 C 106.527 8.571 108.736 7.293 112.083 7.293 C 114.314 7.293 116.024 7.879 117.212 9.049 C 118.403 10.221 119 11.859 119 13.967 L 119 22.707 C 119 23.311 118.704 23.614 118.113 23.614 L 116.312 23.614 C 115.765 23.614 115.461 23.41 115.397 23.002 L 115.273 21.836 C 114.325 23.28 112.767 24 110.605 24 Z M 111.801 21.52 C 112.896 21.52 113.749 21.188 114.359 20.522 C 114.967 19.853 115.273 19.024 115.273 18.035 L 115.239 16.194 C 114.227 15.937 113.188 15.807 112.145 15.808 C 110.99 15.808 110.048 16.024 109.319 16.454 C 108.594 16.886 108.233 17.575 108.233 18.52 C 108.233 19.528 108.573 20.28 109.257 20.775 C 109.945 21.272 110.792 21.52 111.801 21.52 Z M 95.1 24 C 93.019 24 91.389 23.217 90.212 21.646 C 89.033 20.078 88.445 17.982 88.445 15.358 C 88.445 12.755 89.026 10.76 90.191 9.372 C 91.36 7.986 92.996 7.293 95.1 7.293 C 96.682 7.293 97.997 7.853 99.047 8.972 L 99.047 0.906 C 99.047 0.302 99.343 0 99.934 0 L 101.955 0 C 102.523 0 102.808 0.302 102.808 0.906 L 102.808 22.707 C 102.808 23.311 102.523 23.614 101.955 23.614 L 100.154 23.614 C 99.607 23.614 99.312 23.452 99.267 23.129 L 99.178 22.194 C 98.229 23.399 96.869 24 95.1 24 Z M 95.795 21.52 C 97.311 21.52 98.396 20.831 99.047 19.454 L 99.047 11.838 C 98.373 10.461 97.289 9.773 95.795 9.773 C 94.45 9.773 93.541 10.221 93.065 11.115 C 92.592 12.011 92.357 13.425 92.357 15.358 C 92.357 16.628 92.434 17.682 92.591 18.52 C 92.75 19.359 93.092 20.069 93.615 20.649 C 94.141 21.23 94.868 21.52 95.795 21.52 Z M 80.582 24 C 75.618 24 73.136 21.216 73.136 15.646 C 73.136 10.078 75.618 7.293 80.582 7.293 C 82.961 7.293 84.764 7.96 85.993 9.295 C 87.226 10.626 87.843 12.485 87.843 14.874 L 87.843 15.45 C 87.843 15.82 87.549 16.005 86.963 16.005 L 77.048 16.005 C 77.048 19.683 78.225 21.52 80.582 21.52 C 82.057 21.52 83.068 20.874 83.614 19.581 C 83.843 19.089 84.168 18.843 84.591 18.843 L 86.646 18.843 C 86.938 18.843 87.159 18.924 87.307 19.082 C 87.453 19.242 87.485 19.44 87.403 19.679 C 86.916 20.968 86.11 22.01 84.982 22.806 C 83.858 23.603 82.392 24 80.582 24 Z M 77.11 13.876 L 83.868 13.876 L 83.868 13.581 C 83.868 12.401 83.594 11.471 83.044 10.791 C 82.497 10.114 81.677 9.773 80.582 9.773 C 78.372 9.773 77.214 11.141 77.11 13.876 Z M 65.366 23.613 C 64.844 23.613 64.507 23.378 64.356 22.904 L 59.213 8.712 C 58.982 8.023 59.214 7.679 59.907 7.679 L 62.114 7.679 C 62.623 7.679 62.96 7.916 63.125 8.389 L 65.435 14.874 C 65.958 16.359 66.387 17.745 66.728 19.033 C 67.082 17.623 67.513 16.235 68.02 14.874 L 70.358 8.389 C 70.523 7.916 70.86 7.679 71.369 7.679 L 72.503 7.679 C 72.837 7.679 73.067 7.778 73.191 7.974 C 73.318 8.167 73.321 8.413 73.198 8.712 L 67.862 22.939 C 67.673 23.389 67.336 23.614 66.851 23.614 L 65.366 23.614 Z M 52.079 24 C 47.114 24 44.632 21.216 44.632 15.646 C 44.632 10.078 47.114 7.293 52.079 7.293 C 54.458 7.293 56.261 7.96 57.49 9.295 C 58.722 10.626 59.339 12.485 59.339 14.874 L 59.339 15.45 C 59.339 15.82 59.045 16.005 58.459 16.005 L 48.544 16.005 C 48.544 19.683 49.722 21.52 52.079 21.52 C 53.553 21.52 54.564 20.874 55.111 19.581 C 55.339 19.089 55.664 18.843 56.087 18.843 L 58.143 18.843 C 58.435 18.843 58.655 18.924 58.803 19.082 C 58.949 19.242 58.982 19.44 58.899 19.679 C 58.413 20.968 57.607 22.01 56.479 22.806 C 55.355 23.603 53.889 24 52.079 24 Z M 48.606 13.876 L 55.365 13.876 L 55.365 13.581 C 55.365 12.401 55.09 11.471 54.54 10.791 C 53.994 10.114 53.174 9.773 52.079 9.773 C 49.868 9.773 48.711 11.141 48.606 13.876 Z M 28.85 16.321 L 28.816 8.585 C 28.816 7.981 29.112 7.679 29.703 7.679 L 31.69 7.679 C 32.276 7.679 32.57 7.981 32.57 8.586 L 32.543 16.293 C 32.543 17.473 32.551 18.172 32.57 18.386 C 32.656 19.333 32.977 20.092 33.533 20.663 C 34.091 21.235 34.875 21.52 35.884 21.52 C 37.424 21.52 38.552 20.853 39.267 19.517 L 39.267 8.586 C 39.267 7.982 39.559 7.679 40.147 7.679 L 42.134 7.679 C 42.725 7.679 43.021 7.982 43.021 8.586 L 43.021 22.707 C 43.021 23.312 42.725 23.614 42.134 23.614 L 40.243 23.614 C 39.716 23.614 39.42 23.473 39.356 23.193 L 39.267 22.321 C 38.236 23.441 36.814 24 35.004 24 C 33.299 24 31.919 23.556 30.865 22.665 C 29.815 21.771 29.184 20.561 28.974 19.033 C 28.891 18.476 28.85 17.571 28.85 16.321 Z M 28.312 9.457 C 28.312 10.122 27.996 10.368 27.363 10.194 C 26.882 10.087 26.366 10.033 25.816 10.033 C 24.702 10.033 23.791 10.426 23.086 11.213 C 22.38 11.997 22.027 13.194 22.027 14.81 L 22.027 22.707 C 22.027 23.311 21.733 23.614 21.147 23.614 L 19.16 23.614 C 18.569 23.614 18.273 23.311 18.273 22.707 L 18.273 8.586 C 18.273 7.981 18.569 7.679 19.16 7.679 L 21.016 7.679 C 21.584 7.679 21.892 7.971 21.938 8.55 L 22.027 10.23 C 22.407 9.242 22.991 8.506 23.781 8.023 C 24.568 7.537 25.426 7.293 26.352 7.293 C 26.814 7.293 27.225 7.326 27.583 7.391 C 28.068 7.475 28.312 7.809 28.312 8.389 Z M 7.481 23.613 C 6.89 23.613 6.594 23.311 6.594 22.707 L 6.594 4.356 L 0.88 4.356 C 0.292 4.356 0 4.057 0 3.457 L 0 1.939 C 0 1.335 0.292 1.033 0.88 1.033 L 16.694 1.033 C 17.286 1.033 17.581 1.335 17.581 1.939 L 17.581 3.457 C 17.581 4.057 17.286 4.356 16.694 4.356 L 10.953 4.356 L 10.953 22.707 C 10.953 23.311 10.668 23.614 10.101 23.614 L 7.481 23.614 Z" fill="rgb(255,255,255)"></path></svg>