<svg xmlns="http://www.w3.org/2000/svg" xmlns:xlink="http://www.w3.org/1999/xlink" viewBox="0 0 124 124"><path d="M 107.693 74.469 C 107.676 74.37 107.707 74.268 107.777 74.195 C 107.87 74.287 107.82 74.387 107.798 74.486 Z M 52.611 34.672 C 52.784 34.583 52.841 34.557 52.904 34.787 C 53.346 36.416 53.785 38.049 54.264 39.67 C 54.388 40.097 54.416 40.564 54.724 41.029 C 54.881 40.352 55.021 39.753 55.161 39.153 L 56.13 35.02 C 56.215 34.66 56.398 34.446 56.81 34.43 C 58.073 34.391 59.323 34.446 60.579 34.441 C 60.939 34.441 61.3 34.39 61.657 34.413 C 62.156 34.445 62.367 34.642 62.474 35.128 C 62.788 36.564 63.134 37.993 63.527 39.409 C 63.65 39.88 63.818 40.337 64.028 40.776 C 64.338 39.638 64.649 38.499 64.959 37.361 C 65.189 36.523 65.426 35.687 65.648 34.848 C 65.709 34.625 65.784 34.607 65.962 34.761 C 67.481 36.071 68.922 37.463 70.316 38.904 C 70.652 39.231 70.778 39.718 70.642 40.167 C 69.541 44.439 68.379 48.697 67.228 52.956 C 66.939 54.029 66.654 55.105 66.354 56.171 C 66.125 56.988 66.058 57.001 65.447 56.446 C 64.81 55.866 64.221 55.237 63.617 54.625 C 63.143 54.144 62.554 53.797 62.082 53.303 C 61.601 52.779 61.228 52.164 60.985 51.496 C 60.447 50.133 60.342 48.664 59.951 47.263 C 59.749 46.53 59.569 45.793 59.29 45.031 C 59.191 45.142 59.127 45.278 59.103 45.425 C 58.637 47.114 58.275 48.827 57.908 50.538 C 57.672 51.733 57.044 52.814 56.123 53.611 C 54.936 54.63 53.798 55.7 52.708 56.819 C 52.548 56.984 52.462 57.039 52.38 56.737 C 51.903 54.983 51.367 53.242 50.923 51.48 C 50.617 50.258 50.272 49.046 49.967 47.824 C 49.591 46.319 49.149 44.832 48.74 43.336 C 48.456 42.303 48.131 41.269 47.912 40.222 C 47.771 39.544 48.052 38.943 48.601 38.49 C 49.559 37.679 50.469 36.813 51.325 35.896 C 51.425 35.792 51.528 35.691 51.631 35.588 Z M 65.83 46.799 L 61.945 49.028 C 62.961 49.461 63.922 49.257 64.649 48.481 C 65.117 47.98 65.478 47.399 65.83 46.799 Z M 52.09 46.838 L 52.029 46.926 C 52.562 47.596 53.052 48.304 53.708 48.868 C 54.266 49.348 55.23 49.404 55.873 48.991 Z M 22.083 71.318 C 22.333 70.684 22.427 70.083 22.585 69.498 C 22.875 68.405 23.148 67.309 23.405 66.208 C 23.45 66.014 23.529 65.96 23.697 65.96 L 27.437 65.96 C 27.623 65.96 27.666 66.006 27.609 66.202 C 27.262 67.394 26.923 68.589 26.593 69.787 C 26.167 71.331 25.655 72.85 25.296 74.413 C 25.214 74.766 25.066 75.101 24.969 75.453 C 24.918 75.657 24.813 75.7 24.625 75.698 C 23.154 75.694 21.683 75.694 20.213 75.698 C 20.022 75.698 19.959 75.617 19.916 75.458 C 19.764 74.896 19.601 74.336 19.45 73.772 C 19.427 73.685 19.418 73.569 19.335 73.563 C 19.199 73.554 19.229 73.691 19.202 73.781 C 19.044 74.338 18.846 74.883 18.743 75.456 C 18.712 75.63 18.612 75.696 18.431 75.695 C 16.961 75.689 15.489 75.682 14.02 75.695 C 13.675 75.695 13.675 75.431 13.622 75.255 C 13.152 73.515 12.634 71.788 12.138 70.054 C 11.783 68.816 11.449 67.572 11.07 66.341 C 10.985 66.069 11.036 65.935 11.389 65.943 C 12.537 65.97 13.685 65.956 14.834 65.95 C 15.074 65.95 15.195 65.991 15.263 66.272 C 15.637 67.844 16.046 69.408 16.439 70.98 C 16.453 71.091 16.507 71.193 16.59 71.268 C 16.851 70.225 17.105 69.201 17.362 68.178 C 17.532 67.504 17.718 66.834 17.872 66.155 C 17.908 65.995 17.961 65.955 18.101 65.956 L 20.495 65.956 C 20.673 65.956 20.742 66.012 20.788 66.2 C 21.171 67.772 21.573 69.34 21.97 70.907 C 21.998 71.017 22.029 71.124 22.083 71.318 Z" fill="rgb(255,255,255)"></path><path d="M 104.159 71.662 C 103.879 72.889 103.597 74.115 103.32 75.344 C 103.266 75.585 103.183 75.724 102.886 75.702 C 102.413 75.675 101.939 75.675 101.466 75.702 C 101.189 75.716 101.08 75.618 101.02 75.358 C 100.748 74.123 100.456 72.893 100.167 71.635 C 100.076 71.762 100.114 71.881 100.114 71.989 C 100.114 73.123 100.106 74.258 100.114 75.391 C 100.114 75.632 100.052 75.71 99.803 75.708 C 98.607 75.695 97.41 75.698 96.214 75.708 C 95.984 75.708 95.915 75.652 95.915 75.416 C 95.923 72.364 95.923 69.31 95.915 66.256 C 95.915 66.027 95.995 65.962 96.216 65.964 C 97.65 65.972 99.087 65.974 100.516 65.964 C 100.756 65.964 100.825 66.057 100.885 66.271 C 101.263 67.638 101.661 68.999 102.053 70.363 C 102.073 70.432 102.105 70.499 102.134 70.576 C 102.286 70.485 102.267 70.339 102.305 70.208 C 102.693 68.859 103.097 67.514 103.478 66.162 C 103.523 66.003 103.579 65.968 103.718 65.968 C 105.202 65.968 106.685 65.975 108.167 65.968 C 108.482 65.968 108.421 66.166 108.421 66.342 L 108.421 75.39 C 108.421 75.62 108.366 75.716 108.111 75.714 C 106.916 75.701 105.719 75.704 104.523 75.714 C 104.312 75.714 104.23 75.686 104.236 75.432 C 104.259 74.187 104.252 72.94 104.256 71.694 C 104.277 71.595 104.327 71.495 104.234 71.404 C 104.172 71.474 104.145 71.569 104.159 71.662 Z M 81.661 75.671 C 80.477 75.671 79.289 75.733 78.11 75.654 C 76.863 75.571 76.011 75.018 75.928 73.561 C 75.829 71.822 75.865 70.073 75.898 68.329 C 75.926 66.859 76.779 66.004 78.259 65.978 C 80.614 65.938 82.966 65.961 85.326 65.951 C 85.533 65.951 85.612 66.013 85.609 66.228 C 85.6 66.976 85.594 67.721 85.609 68.472 C 85.616 68.768 85.445 68.747 85.25 68.746 C 83.654 68.746 82.058 68.755 80.463 68.738 C 80.133 68.738 80.038 68.828 80.043 69.156 C 80.059 70.304 80.049 71.452 80.035 72.6 C 80.035 72.845 80.105 72.936 80.353 72.918 C 80.625 72.899 80.901 72.909 81.175 72.918 C 81.334 72.918 81.453 72.892 81.425 72.697 C 81.398 72.502 81.425 72.227 81.177 72.253 C 80.718 72.298 80.695 72.072 80.704 71.726 C 80.722 71.065 80.716 70.404 80.704 69.744 C 80.704 69.507 80.773 69.418 81.025 69.419 C 82.446 69.43 83.867 69.43 85.288 69.419 C 85.533 69.419 85.608 69.496 85.607 69.74 C 85.598 71.622 85.598 73.504 85.607 75.387 C 85.607 75.632 85.53 75.704 85.285 75.702 C 84.076 75.689 82.867 75.702 81.658 75.702 Z M 27.005 70.776 C 27.005 69.879 26.953 68.979 27.019 68.088 C 27.097 67.055 27.628 66.383 28.527 66.123 C 28.959 66.006 29.406 65.95 29.854 65.958 L 33.852 65.958 C 34.432 65.958 35 66.021 35.531 66.309 C 36.162 66.64 36.577 67.273 36.627 67.983 C 36.805 69.706 36.728 71.441 36.684 73.167 C 36.651 74.47 36.154 75.198 35.001 75.559 C 34.679 75.654 34.345 75.699 34.009 75.693 C 32.415 75.693 30.821 75.719 29.228 75.668 C 27.94 75.628 27.128 74.887 27.021 73.576 C 26.946 72.648 27.006 71.709 27.006 70.776 Z M 32.361 70.74 L 32.361 69.657 C 32.354 69.335 32.496 68.92 32.304 68.717 C 32.094 68.487 31.667 68.683 31.339 68.636 C 31.01 68.589 30.968 68.742 30.971 69.019 C 30.984 69.927 30.971 70.837 30.971 71.746 C 30.971 72.854 30.971 72.846 32.079 72.809 C 32.322 72.801 32.366 72.708 32.363 72.496 C 32.35 71.911 32.362 71.326 32.362 70.738 Z M 63.457 69.561 C 63.502 69.065 63.445 68.567 63.518 68.069 C 63.738 66.576 64.538 66.026 65.856 65.987 C 67.985 65.924 70.116 65.964 72.246 65.954 C 72.458 65.954 72.527 66.022 72.524 66.233 C 72.514 66.955 72.507 67.677 72.524 68.399 C 72.532 68.683 72.444 68.758 72.167 68.755 C 70.796 68.743 69.427 68.748 68.056 68.755 C 67.683 68.755 67.539 68.965 67.662 69.316 C 67.725 69.492 67.869 69.422 67.978 69.424 C 68.781 69.43 69.598 69.411 70.406 69.434 C 70.887 69.428 71.366 69.509 71.818 69.673 C 72.503 69.938 72.992 70.553 73.095 71.28 C 73.281 72.334 73.333 73.416 72.917 74.428 C 72.638 75.106 72.02 75.452 71.31 75.613 C 70.955 75.682 70.594 75.711 70.234 75.699 C 68.316 75.695 66.397 75.695 64.479 75.699 C 64.222 75.699 64.121 75.668 64.135 75.364 C 64.169 74.675 64.161 73.994 64.135 73.31 C 64.124 73.002 64.207 72.902 64.524 72.908 C 65.657 72.927 66.792 72.915 67.925 72.915 C 69.001 72.915 69.001 72.915 69.002 72.58 C 69.002 72.224 69.002 72.224 67.904 72.224 C 67.319 72.224 66.733 72.212 66.148 72.224 C 65.373 72.243 64.685 72.037 64.108 71.505 L 63.911 71.267 C 63.681 70.797 63.434 70.331 63.452 69.783 Z M 49.457 71.198 C 49.641 70.483 49.828 69.769 50.007 69.053 C 50.237 68.128 50.458 67.202 50.685 66.276 C 50.736 66.066 50.829 65.949 51.089 65.953 C 52.272 65.969 53.456 65.962 54.639 65.953 C 54.868 65.953 54.983 65.968 54.895 66.26 C 54.008 69.319 53.132 72.379 52.267 75.441 C 52.202 75.671 52.108 75.702 51.912 75.7 C 50.23 75.7 48.548 75.693 46.866 75.7 C 46.644 75.7 46.597 75.621 46.541 75.423 C 46.117 73.93 45.664 72.437 45.235 70.945 C 44.807 69.452 44.406 67.971 43.992 66.485 C 43.846 65.962 43.843 65.963 44.373 65.963 C 45.481 65.963 46.59 65.97 47.703 65.956 C 47.967 65.956 48.07 66.021 48.134 66.295 C 48.504 67.864 48.9 69.428 49.29 70.993 C 49.312 71.062 49.339 71.129 49.37 71.195 Z M 95.901 66.026 C 95.431 66.864 94.868 67.647 94.355 68.453 C 93.885 69.184 93.41 69.909 92.937 70.635 C 92.859 70.775 92.825 70.935 92.838 71.094 C 92.838 72.502 92.838 73.911 92.846 75.319 C 92.846 75.598 92.795 75.706 92.483 75.702 C 91.325 75.683 90.166 75.683 89.007 75.702 C 88.694 75.707 88.643 75.596 88.645 75.319 C 88.658 73.949 88.645 72.578 88.655 71.206 C 88.664 71.009 88.611 70.814 88.505 70.648 C 87.577 69.213 86.65 67.778 85.725 66.341 C 85.663 66.246 85.53 66.14 85.611 66.011 C 85.676 65.908 85.817 65.96 85.924 65.96 C 87.082 65.96 88.242 65.965 89.401 65.953 C 89.6 65.934 89.79 66.04 89.879 66.218 C 90.076 66.549 90.293 66.867 90.496 67.193 C 90.699 67.519 90.752 67.529 90.97 67.174 C 91.188 66.82 91.398 66.502 91.603 66.161 C 91.663 66.035 91.792 65.956 91.931 65.959 C 93.227 65.963 94.523 65.967 95.82 65.969 C 95.839 65.97 95.864 65.993 95.901 66.026 Z M 36.841 70.829 C 36.841 69.322 36.848 67.816 36.835 66.308 C 36.835 66.028 36.916 65.949 37.195 65.953 C 38.352 65.968 39.51 65.968 40.669 65.953 C 40.949 65.953 41.026 66.032 41.025 66.31 C 41.013 68.376 41.025 70.443 41.01 72.51 C 41.01 72.844 41.099 72.929 41.426 72.921 C 42.334 72.899 43.244 72.921 44.152 72.908 C 44.41 72.908 44.497 72.98 44.497 73.244 C 44.482 73.954 44.484 74.664 44.497 75.373 C 44.497 75.61 44.435 75.698 44.182 75.697 C 41.829 75.688 39.476 75.688 37.122 75.697 C 36.917 75.697 36.832 75.677 36.834 75.424 C 36.85 73.893 36.841 72.36 36.841 70.829 Z M 44.506 51.153 C 44.646 50.563 44.781 49.985 44.92 49.409 C 45.324 47.742 45.733 46.079 46.131 44.409 C 46.304 43.691 46.453 42.968 46.612 42.248 C 46.631 42.083 46.758 41.952 46.922 41.929 C 47.114 41.909 47.073 42.109 47.098 42.204 C 47.94 45.335 48.774 48.467 49.601 51.602 C 49.787 52.303 49.984 53.002 50.169 53.705 C 50.2 53.828 50.284 53.981 50.159 54.086 C 50.034 54.192 49.874 54.169 49.715 54.093 C 48.403 53.469 47.09 52.849 45.775 52.233 C 45.488 52.098 45.191 51.983 44.912 51.835 C 44.665 51.696 44.51 51.436 44.506 51.153 Z M 67.603 54.16 C 67.793 53.432 67.986 52.71 68.177 51.985 C 68.359 51.279 68.504 50.555 68.724 49.867 C 69.269 48.175 69.653 46.442 70.14 44.736 C 70.38 43.896 70.583 43.045 70.793 42.198 C 70.829 42.056 70.859 41.927 71.023 41.921 C 71.187 41.915 71.197 42.056 71.234 42.177 C 71.719 43.769 72.024 45.407 72.416 47.022 C 72.708 48.231 72.978 49.446 73.266 50.656 C 73.452 51.436 73.287 51.713 72.545 52.026 C 71.774 52.351 71.03 52.74 70.264 53.082 C 69.471 53.438 68.712 53.871 67.875 54.129 C 67.779 54.158 67.693 54.207 67.603 54.16 Z M 65.547 32.673 C 65.614 32.16 65.8 31.674 65.938 31.181 C 66.243 30.085 66.529 28.984 66.828 27.888 C 66.93 27.514 67.002 27.129 67.173 26.773 C 67.232 26.648 67.288 26.511 67.457 26.526 C 67.627 26.541 67.583 26.701 67.606 26.795 C 68.049 28.651 68.487 30.509 68.919 32.368 C 69.275 33.889 69.625 35.413 69.985 36.933 C 70.011 37.048 70.078 37.15 69.932 37.217 C 69.817 37.266 69.753 37.229 69.649 37.143 C 68.874 36.495 68.245 35.702 67.5 35.026 C 67.026 34.595 66.538 34.181 66.068 33.747 C 65.764 33.469 65.577 33.085 65.547 32.673 Z M 52.294 32.795 C 52.297 33.021 52.208 33.238 52.047 33.397 C 50.787 34.622 49.524 35.842 48.259 37.059 C 48.161 37.153 48.054 37.209 47.924 37.147 C 47.795 37.085 47.858 36.98 47.883 36.869 C 48.154 35.701 48.414 34.528 48.678 33.357 C 49.181 31.134 49.757 28.926 50.206 26.691 C 50.231 26.565 50.283 26.518 50.392 26.511 C 50.546 26.5 50.621 26.55 50.669 26.728 C 50.884 27.574 51.128 28.413 51.357 29.254 C 51.654 30.359 51.943 31.467 52.236 32.574 C 52.26 32.661 52.282 32.744 52.294 32.795 Z M 56.359 56.349 C 56.382 56.338 56.404 56.317 56.426 56.317 L 61.477 56.317 C 61.487 56.475 61.391 56.558 61.327 56.655 C 60.861 57.35 60.397 58.047 59.934 58.745 C 59.662 59.155 59.373 59.562 59.086 59.965 C 58.923 60.194 58.871 60.11 58.76 59.944 C 58.121 58.988 57.479 58.035 56.833 57.084 C 56.682 56.861 56.515 56.648 56.356 56.429 Z M 106.003 78.683 C 106.003 79.193 105.995 79.703 106.003 80.212 C 106.003 80.442 105.952 80.547 105.693 80.548 C 105.111 80.548 105.111 80.563 105.111 79.974 C 105.111 79.139 105.12 78.304 105.111 77.471 C 105.111 77.208 105.165 77.114 105.456 77.093 C 105.9 77.061 106.162 77.194 106.35 77.613 C 106.56 78.078 106.856 78.505 107.115 78.948 L 107.22 78.921 C 107.22 78.443 107.248 77.963 107.212 77.489 C 107.181 77.08 107.406 77.099 107.691 77.089 C 107.999 77.078 108.138 77.142 108.127 77.495 C 108.102 78.39 108.11 79.288 108.127 80.185 C 108.127 80.455 108.059 80.543 107.774 80.558 C 107.343 80.581 107.067 80.488 106.876 80.047 C 106.669 79.565 106.348 79.129 106.072 78.677 Z M 58.079 80.542 C 57.803 80.542 57.592 80.531 57.383 80.542 C 57.206 80.569 57.034 80.465 56.975 80.295 C 56.899 80.125 56.783 79.974 56.71 79.804 C 56.553 79.449 56.25 79.582 55.998 79.583 C 55.905 79.583 55.892 79.676 55.889 79.752 L 55.889 80.051 C 55.889 80.492 55.522 80.71 55.106 80.527 C 54.978 80.471 55.002 80.368 55.002 80.276 C 55.002 79.303 55.002 78.331 54.996 77.358 C 54.996 77.138 55.092 77.084 55.29 77.086 C 55.913 77.094 56.536 77.079 57.16 77.094 C 57.734 77.108 58.034 77.386 58.052 77.96 C 58.069 78.489 58.202 79.072 57.604 79.427 C 57.489 79.498 57.565 79.597 57.615 79.686 C 57.757 79.946 57.898 80.208 58.079 80.542 Z M 56.369 78.793 C 57.112 78.793 57.149 78.759 57.132 78.162 C 57.132 77.977 57.109 77.778 56.891 77.765 C 56.554 77.747 56.202 77.67 55.877 77.822 C 55.87 77.822 55.867 77.845 55.865 77.856 C 55.842 78.14 55.785 78.442 55.888 78.701 C 55.966 78.896 56.229 78.754 56.369 78.794 Z M 99.435 78.823 C 99.435 78.5 99.427 78.176 99.435 77.854 C 99.45 77.342 99.598 77.121 100.086 77.072 C 100.714 76.988 101.35 76.996 101.976 77.097 C 102.381 77.175 102.584 77.405 102.595 77.814 C 102.612 78.473 102.614 79.132 102.595 79.79 C 102.583 80.284 102.223 80.609 101.725 80.612 C 101.228 80.614 100.755 80.612 100.271 80.605 C 99.697 80.594 99.454 80.361 99.434 79.793 C 99.426 79.47 99.435 79.147 99.435 78.823 Z M 100.251 78.761 L 100.251 79.505 C 100.251 79.802 100.442 79.92 100.684 79.89 C 101.028 79.848 101.475 80.106 101.703 79.616 C 101.712 79.592 101.716 79.567 101.715 79.542 L 101.715 78.017 C 101.715 77.877 101.654 77.722 101.493 77.713 C 101.126 77.692 100.724 77.581 100.4 77.775 C 100.122 77.943 100.291 78.302 100.257 78.579 C 100.251 78.639 100.249 78.7 100.251 78.761 Z M 46.74 78.833 L 46.74 79.692 C 46.73 80.203 46.516 80.536 46.022 80.579 C 45.372 80.638 44.71 80.677 44.057 80.544 C 43.788 80.502 43.591 80.267 43.598 79.995 C 43.576 79.223 43.582 78.452 43.592 77.68 C 43.592 77.278 43.886 77.099 44.227 77.071 C 44.856 77.018 45.49 76.975 46.12 77.098 C 46.482 77.147 46.749 77.46 46.74 77.825 C 46.755 78.16 46.74 78.497 46.74 78.833 Z M 45.856 78.784 L 45.856 78.669 C 45.856 77.618 45.856 77.624 44.795 77.686 C 44.514 77.703 44.389 77.832 44.386 78.101 L 44.386 79.329 C 44.386 79.808 44.467 79.888 44.947 79.903 L 45.244 79.903 C 45.791 79.896 45.854 79.829 45.856 79.271 C 45.857 79.107 45.856 78.946 45.856 78.784 Z M 69.717 78.823 C 69.717 78.364 69.726 77.905 69.717 77.445 C 69.709 77.201 69.764 77.081 70.044 77.091 C 70.592 77.11 71.14 77.091 71.688 77.1 C 72.303 77.111 72.666 77.388 72.745 77.979 C 72.844 78.57 72.835 79.173 72.72 79.761 C 72.599 80.298 72.316 80.527 71.776 80.542 C 71.178 80.558 70.579 80.542 69.981 80.549 C 69.788 80.549 69.716 80.48 69.719 80.287 C 69.722 79.799 69.717 79.309 69.717 78.823 Z M 70.57 78.769 L 70.57 79.106 C 70.57 79.896 70.61 79.929 71.417 79.828 C 71.693 79.794 71.85 79.658 71.85 79.369 L 71.85 78.21 C 71.85 77.981 71.756 77.804 71.527 77.771 C 71.234 77.729 70.896 77.656 70.651 77.802 C 70.455 77.916 70.598 78.241 70.573 78.472 C 70.567 78.571 70.566 78.67 70.57 78.769 Z M 29.219 78.805 C 29.219 78.346 29.227 77.886 29.219 77.421 C 29.212 77.192 29.266 77.077 29.527 77.086 C 30.087 77.101 30.647 77.086 31.209 77.094 C 31.814 77.108 32.151 77.362 32.242 77.954 C 32.349 78.556 32.341 79.174 32.218 79.773 C 32.103 80.272 31.831 80.509 31.333 80.529 C 30.71 80.556 30.087 80.529 29.463 80.543 C 29.253 80.543 29.219 80.438 29.22 80.263 C 29.222 79.776 29.219 79.291 29.219 78.805 Z M 31.352 78.794 L 31.352 78.308 C 31.358 78.078 31.332 77.848 31.086 77.789 C 30.773 77.705 30.444 77.705 30.131 77.789 C 30.056 77.809 30.072 77.918 30.072 77.991 L 30.072 79.561 C 30.072 79.752 30.145 79.825 30.337 79.827 C 31.281 79.835 31.392 79.849 31.354 78.9 L 31.354 78.794 Z M 75.317 78.798 C 75.317 78.339 75.325 77.879 75.317 77.42 C 75.317 77.191 75.37 77.076 75.626 77.087 C 76.185 77.103 76.744 77.087 77.303 77.096 C 77.927 77.11 78.274 77.379 78.349 77.982 C 78.425 78.584 78.458 79.198 78.314 79.796 C 78.199 80.285 77.882 80.526 77.378 80.537 C 76.782 80.551 76.185 80.537 75.588 80.545 C 75.366 80.545 75.315 80.451 75.318 80.254 C 75.322 79.768 75.317 79.284 75.317 78.798 Z M 76.169 78.792 L 76.169 79.091 C 76.169 79.906 76.169 79.906 76.993 79.83 C 77.03 79.83 77.067 79.823 77.108 79.816 C 77.306 79.803 77.457 79.636 77.453 79.438 C 77.461 79.004 77.463 78.57 77.453 78.136 C 77.452 77.941 77.303 77.778 77.108 77.759 C 76.33 77.599 76.182 77.716 76.182 78.495 Z M 49.323 78.6 C 49.323 78.201 49.333 77.802 49.323 77.404 C 49.316 77.186 49.38 77.072 49.616 77.097 C 49.715 77.108 49.815 77.108 49.915 77.097 C 50.144 77.074 50.222 77.169 50.219 77.396 C 50.209 78.085 50.228 78.767 50.211 79.452 C 50.202 79.815 50.368 79.951 50.702 79.94 C 50.864 79.941 51.025 79.932 51.186 79.914 C 51.439 79.871 51.568 79.726 51.565 79.455 C 51.553 78.782 51.578 78.108 51.554 77.436 C 51.542 77.092 51.724 77.092 51.971 77.092 C 52.218 77.092 52.43 77.072 52.421 77.444 C 52.396 78.204 52.421 78.964 52.41 79.724 C 52.41 80.227 52.196 80.456 51.691 80.557 C 51.135 80.672 50.573 80.613 50.016 80.6 C 49.646 80.592 49.354 80.217 49.327 79.838 L 49.327 78.6 Z M 63.824 80.541 C 64.238 79.462 64.628 78.452 65.007 77.441 C 65.096 77.195 65.208 77.049 65.483 77.096 C 65.759 77.143 66.116 76.945 66.275 77.418 C 66.596 78.369 66.972 79.3 67.333 80.235 C 67.422 80.465 67.388 80.563 67.112 80.553 C 66.768 80.542 66.402 80.619 66.309 80.126 C 66.284 79.987 66.162 79.938 66.023 79.94 C 65.849 79.951 65.674 79.951 65.5 79.94 C 65.174 79.902 64.939 79.984 64.874 80.342 C 64.843 80.51 64.731 80.556 64.575 80.552 C 64.345 80.537 64.11 80.541 63.824 80.541 Z M 65.58 78.132 C 65.465 78.461 65.371 78.727 65.282 78.997 C 65.26 79.064 65.233 79.161 65.316 79.196 C 65.492 79.256 65.683 79.261 65.862 79.21 C 65.933 79.196 65.945 79.117 65.925 79.058 C 65.847 78.737 65.731 78.426 65.58 78.132 Z M 24.049 78.82 C 24.049 78.347 24.056 77.874 24.049 77.401 C 24.049 77.185 24.101 77.083 24.34 77.086 C 25.05 77.099 25.761 77.099 26.471 77.086 C 26.742 77.086 26.766 77.224 26.769 77.437 C 26.773 77.651 26.725 77.782 26.462 77.776 C 26.077 77.76 25.689 77.786 25.304 77.767 C 25.037 77.754 24.932 77.826 24.93 78.111 C 24.93 78.425 25.075 78.456 25.32 78.443 C 25.594 78.431 25.868 78.443 26.142 78.443 C 26.393 78.435 26.385 78.598 26.38 78.766 C 26.376 78.933 26.424 79.134 26.142 79.129 C 25.861 79.123 25.543 79.144 25.246 79.129 C 24.948 79.114 24.94 79.283 24.936 79.504 C 24.931 79.726 24.976 79.88 25.26 79.866 C 25.657 79.847 26.063 79.873 26.455 79.858 C 26.712 79.847 26.774 79.965 26.768 80.194 C 26.768 80.402 26.756 80.554 26.477 80.548 C 25.754 80.534 25.031 80.539 24.309 80.548 C 24.113 80.548 24.047 80.472 24.051 80.283 C 24.054 79.792 24.049 79.305 24.049 78.82 Z M 18.879 78.82 C 18.879 78.347 18.887 77.874 18.879 77.401 C 18.879 77.185 18.932 77.083 19.17 77.086 C 19.88 77.099 20.59 77.099 21.3 77.086 C 21.572 77.086 21.595 77.224 21.599 77.437 C 21.602 77.651 21.555 77.782 21.292 77.776 C 20.906 77.76 20.52 77.786 20.134 77.767 C 19.867 77.754 19.763 77.826 19.759 78.111 C 19.759 78.425 19.905 78.456 20.151 78.443 C 20.424 78.431 20.699 78.443 20.972 78.443 C 21.223 78.435 21.214 78.598 21.211 78.766 C 21.207 78.933 21.253 79.134 20.973 79.129 C 20.673 79.129 20.374 79.144 20.076 79.129 C 19.779 79.114 19.765 79.279 19.765 79.501 C 19.765 79.722 19.807 79.876 20.09 79.862 C 20.487 79.844 20.887 79.869 21.285 79.854 C 21.543 79.844 21.605 79.961 21.599 80.191 C 21.599 80.399 21.585 80.55 21.306 80.544 C 20.584 80.531 19.862 80.535 19.139 80.544 C 18.943 80.544 18.878 80.469 18.88 80.279 C 18.885 79.792 18.88 79.305 18.879 78.82 Z M 85.008 78.808 C 85.008 78.472 85 78.135 85.008 77.799 C 85.022 77.419 85.238 77.144 85.607 77.123 C 86.24 77.086 86.87 77.095 87.511 77.096 C 87.796 77.096 87.705 77.326 87.719 77.484 C 87.732 77.643 87.699 77.778 87.489 77.774 C 87.078 77.767 86.667 77.783 86.256 77.774 C 86.003 77.767 85.899 77.868 85.883 78.118 C 85.852 78.59 85.847 79.063 85.87 79.536 C 85.884 79.816 85.985 79.956 86.318 79.904 C 86.696 79.845 87.087 79.873 87.473 79.857 C 87.645 79.849 87.734 79.919 87.724 80.094 C 87.715 80.268 87.784 80.464 87.528 80.508 C 86.893 80.626 86.244 80.654 85.6 80.593 C 85.241 80.557 85.026 80.305 85.016 79.931 C 85.006 79.557 85.016 79.183 85.016 78.81 Z M 15.043 77.092 C 15.404 77.092 15.766 77.103 16.126 77.092 C 16.397 77.08 16.424 77.227 16.426 77.436 C 16.428 77.645 16.384 77.786 16.12 77.781 C 15.709 77.764 15.298 77.792 14.888 77.773 C 14.534 77.754 14.603 77.991 14.597 78.193 C 14.591 78.395 14.554 78.629 14.899 78.604 C 15.196 78.582 15.497 78.604 15.795 78.604 C 16.041 78.595 16.045 78.75 16.037 78.922 C 16.029 79.094 16.087 79.295 15.807 79.287 L 15.396 79.287 C 14.6 79.287 14.6 79.287 14.6 80.063 C 14.6 80.138 14.595 80.213 14.6 80.287 C 14.614 80.478 14.534 80.564 14.34 80.55 C 14.203 80.543 14.066 80.543 13.929 80.55 C 13.766 80.55 13.712 80.474 13.713 80.32 L 13.713 77.335 C 13.713 77.153 13.798 77.097 13.965 77.1 C 14.321 77.095 14.682 77.092 15.043 77.092 Z M 39.794 78.672 C 40.024 78.202 40.238 77.754 40.457 77.312 C 40.543 77.138 41.315 76.989 41.427 77.127 C 41.505 77.222 41.409 77.313 41.367 77.394 C 41.085 77.948 40.811 78.505 40.509 79.045 C 40.303 79.414 40.164 79.786 40.219 80.214 C 40.249 80.444 40.178 80.553 39.917 80.547 C 39.228 80.532 39.343 80.577 39.331 79.973 C 39.339 79.849 39.319 79.725 39.27 79.611 C 38.91 78.889 38.587 78.15 38.162 77.462 C 37.988 77.181 38.038 77.142 38.371 77.095 C 38.808 77.034 39.054 77.187 39.205 77.602 C 39.351 77.945 39.517 78.279 39.703 78.602 C 39.712 78.618 39.738 78.63 39.794 78.672 Z M 96.103 80.542 C 95.941 80.552 95.78 80.552 95.618 80.542 C 95.471 80.522 95.229 80.657 95.214 80.365 C 95.201 80.135 95.114 79.836 95.499 79.797 C 95.665 79.779 95.654 79.663 95.654 79.553 L 95.654 78.061 C 95.654 77.926 95.631 77.791 95.469 77.788 C 95.073 77.788 95.226 77.492 95.213 77.303 C 95.196 77.04 95.41 77.101 95.557 77.098 C 95.931 77.092 96.304 77.098 96.678 77.098 C 96.855 77.098 97.022 77.109 96.988 77.348 C 96.967 77.517 97.103 77.786 96.758 77.782 C 96.561 77.782 96.544 77.896 96.544 78.051 L 96.544 79.619 C 96.544 79.779 96.582 79.877 96.773 79.879 C 97.118 79.879 96.97 80.155 96.993 80.322 C 97.021 80.542 96.867 80.552 96.704 80.552 C 96.497 80.538 96.303 80.541 96.103 80.542 Z M 81.223 78.792 L 81.223 78.231 C 81.23 77.981 81.244 77.771 80.879 77.756 C 80.649 77.748 80.811 77.503 80.784 77.368 C 80.756 77.234 80.784 77.09 80.982 77.092 L 82.36 77.092 C 82.563 77.092 82.571 77.24 82.555 77.379 C 82.539 77.518 82.652 77.755 82.394 77.76 C 82.113 77.76 82.105 77.915 82.109 78.122 L 82.109 79.58 C 82.109 79.746 82.127 79.869 82.338 79.869 C 82.656 79.869 82.528 80.124 82.548 80.286 C 82.575 80.481 82.469 80.545 82.282 80.542 C 81.858 80.535 81.435 80.542 81.011 80.542 C 80.874 80.542 80.71 80.509 80.747 80.368 C 80.791 80.202 80.625 79.909 80.925 79.877 C 81.225 79.845 81.219 79.674 81.215 79.464 C 81.212 79.254 81.223 79.016 81.223 78.792 Z M 90.993 79.143 C 90.993 78.798 90.983 78.446 90.993 78.098 C 91.002 77.868 90.931 77.743 90.678 77.772 C 90.563 77.784 90.449 77.759 90.343 77.772 C 89.98 77.829 89.931 77.635 89.948 77.338 C 89.96 77.138 90.046 77.085 90.226 77.085 C 91.023 77.085 91.818 77.095 92.614 77.085 C 92.906 77.085 92.886 77.256 92.892 77.451 C 92.898 77.646 92.862 77.767 92.613 77.777 C 91.852 77.805 91.852 77.816 91.852 78.581 C 91.852 79.129 91.833 79.676 91.859 80.223 C 91.875 80.588 91.65 80.547 91.423 80.544 C 91.197 80.542 90.964 80.596 90.985 80.226 C 91.005 79.857 90.994 79.503 90.993 79.143 Z M 63.22 75.007 L 63.22 74.325 C 63.22 74.037 63.234 73.751 63.22 73.461 L 63.22 73.209 C 63.22 73.1 63.243 72.986 63.157 72.893 L 62.927 72.893 C 61.715 72.899 60.504 72.915 59.292 72.902 C 59.218 72.908 59.143 72.889 59.081 72.847 C 59.034 72.766 59.019 72.67 59.04 72.578 L 59.04 72.537 C 59.058 72.467 59.061 72.393 59.048 72.321 C 59.048 72.321 59.048 72.313 59.048 72.309 C 59.059 72.283 59.079 72.262 59.104 72.249 L 63.15 72.249 L 63.224 72.174 L 63.224 69.493 L 63.15 69.419 L 59.104 69.419 C 59.079 69.406 59.059 69.385 59.048 69.359 C 59.048 69.359 59.048 69.351 59.048 69.346 C 59.036 69.26 59.033 69.172 59.041 69.085 C 59.021 68.881 59.041 68.733 59.323 68.74 C 60.444 68.756 61.566 68.749 62.687 68.74 C 63.307 68.74 63.203 68.79 63.218 68.195 C 63.235 67.524 63.166 66.851 63.258 66.183 C 63.276 66.049 63.226 65.993 63.12 65.973 C 63.021 65.96 62.921 65.956 62.822 65.962 C 60.296 65.962 57.763 65.967 55.234 65.955 C 54.924 65.955 54.842 66.033 54.843 66.345 C 54.856 69.33 54.856 72.32 54.843 75.313 C 54.843 75.59 54.906 75.684 55.136 75.7 L 55.236 75.7 C 56.37 75.696 57.505 75.693 58.64 75.692 L 59.284 75.692 C 60.465 75.692 61.645 75.695 62.824 75.7 L 62.947 75.7 C 63.003 75.701 63.06 75.697 63.116 75.688 C 63.221 75.668 63.272 75.612 63.253 75.478 C 63.24 75.318 63.227 75.163 63.22 75.007 Z" fill="rgb(255,255,255)"></path></svg>